PathFileType	4	(X/Y/Z)	C:/Users/beibeiliu/ov580/test_trc\sequence.13_training_dense_right.trc
DataRate	CameraRate	NumFrames	NumMarkers	Units	OrigDataRate	OrigDataStartFrame	OrigNumFrames
120	120	10	19	mm	120	1	79
Frame#	Time	ThumbCMC			ThumbMCP			ThumbIP			ThumbTip			IndexMCP			IndexPIP			IndexTip			MiddleMCP			MiddlePIP			MiddleTip			RingMCP			RingPIP			RingTip			PinkyMCP			PinkyPIP			PinkyTip			BackHand1			BackHand2			BackHand3	
		X0	Y0	Z0	X1	Y1	Z1	X2	Y2	Z2	X3	Y3	Z3	X4	Y4	Z4	X5	Y5	Z5	X6	Y6	Z6	X7	Y7	Z7	X8	Y8	Z8	X9	Y9	Z9	X10	Y10	Z10	X11	Y11	Z11	X12	Y12	Z12	X13	Y13	Z13	X14	Y14	Z14	X15	Y15	Z15	X16	Y16	Z16	X17	Y17	Z17	X18	Y18	Z18	
0	0	29.7362	52.903	39.6968	8.10652	36.7387	20.7013	2.38674	27.5112	-1.85417	0.642974	18.4614	-20.6378	27.1114	61.6652	-27.82	20.8925	49.3903	-52.5654	12.7372	36.6703	-67.4611	51.1878	59.5593	-36.4803	44.4329	51.153	-60.1957	44.1692	34.7929	-82.9539	68.22	53.4242	-32.5009	66.714	45.6768	-55.4759	66.4337	35.0277	-75.7947	85.7679	46.4394	-22.0194	89.7933	39.999	-39.8624	93.9634	34.8375	-55.6835	72.2123	66.7719	11.4312	74.9445	72.3929	38.4887	48.7027	74.1031	28.2448	
1	0.00833333	26.7385	52.9135	34.4741	12.2254	37.2024	20.9731	3.8087	27.8612	-3.69785	-2.78254	16.79	-18.841	27.1169	60.6418	-28.2489	18.8116	50.3694	-52.8884	16.3072	32.8673	-70.3218	47.6413	59.9755	-35.5015	43.2694	49.4052	-63.9951	43.3625	34.1185	-85.0558	65.8157	54.0243	-34.9071	71.3176	45.8228	-53.1004	65.1166	35.609	-75.5441	85.1781	46.0563	-21.3392	90.4864	39.489	-40.863	90.5873	34.1833	-59.0963	71.6811	66.172	11.2483	74.6766	71.2881	37.681	47.4114	75.1506	24.6572	
2	0.0166667	26.2915	52.5903	39.893	12.689	36.6693	18.4878	2.49733	27.2221	-2.64857	-0.146401	18.183	-19.8882	27.7733	60.2119	-28.664	18.9496	51.7635	-49.4706	17.5269	34.8321	-68.1397	47.4886	58.4583	-40.3576	43.3937	49.0168	-63.3121	43.8148	32.197	-85.5463	69.1684	53.3363	-33.198	67.7607	46.341	-52.5739	66.3406	34.7637	-73.8079	85.8437	46.4847	-22.5734	90.3636	38.7293	-37.665	91.6991	35.2953	-54.7749	72.647	65.8711	10.2734	77.4767	71.4299	34.7292	49.8707	75.122	25.916	
3	0.025	25.1142	52.4794	36.8299	10.3102	36.3852	21.041	3.13421	27.4539	-4.25019	-2.24228	16.6773	-20.8608	26.154	60.6576	-26.9071	18.824	48.7946	-52.9635	18.588	33.3971	-69.6215	52.0411	57.9597	-38.7847	47.5249	47.0036	-64.4856	46.6936	31.3536	-83.7053	67.9814	54.0467	-35.0437	69.0471	44.9111	-56.8187	65.1211	33.815	-74.299	85.9867	46.2011	-21.3617	89.3561	39.3344	-36.1495	93.324	32.8485	-58.4587	70.3468	67.6288	10.3941	76.4406	69.2033	37.6443	45.8966	74.1223	22.8318	
4	0.0333333	23.7159	52.6353	35.6686	10.7016	36.686	19.9183	1.91862	27.88	-2.86901	-1.61549	17.1714	-21.8709	26.7714	59.8033	-30.9443	18.3392	51.0547	-50.8902	18.1328	33.5489	-68.9366	47.286	58.9977	-35.4049	44.6082	46.4685	-64.1161	42.9837	33.1292	-82.9452	67.0151	52.7915	-30.3817	65.3363	44.2008	-57.3939	64.2904	33.2189	-76.4474	86.755	44.8543	-19.1631	89.2806	37.6037	-41.7189	90.9299	29.1013	-59.2198	71.1279	65.9303	13.2797	79.2639	69.8058	36.8457	51.5457	72.6805	25.8064	
5	0.0416667	24.0855	52.2098	33.5135	12.3269	37.0782	17.9386	3.90046	28.2299	-0.13666	-0.887375	18.6556	-20.2015	23.2566	60.7537	-29.7553	21.3125	50.2781	-53.9955	10.7919	33.6695	-71.5266	48.8185	59.8467	-36.9666	46.4852	50.1904	-62.8683	41.4549	35.8307	-82.7633	64.8233	54.361	-35.3232	67.355	46.2562	-56.3302	60.6373	35.0002	-73.5523	87.0792	45.3682	-24.5199	85.6778	39.3106	-41.1394	87.0178	24.9046	-62.4796	74.3279	65.3444	8.78475	75.6878	69.1992	33.3549	50.166	73.1391	21.1377	
6	0.05	26.5459	52.0512	32.4475	8.99367	37.1102	17.0267	0.325476	27.8451	-5.78168	-1.49002	16.8826	-24.0378	24.3406	62.9509	-31.3239	15.7417	53.2994	-54.7325	15.6852	37.4091	-72.5638	45.5162	63.2002	-39.0686	43.1539	53.6794	-64.0072	40.3459	38.2812	-85.9306	67.7088	55.4719	-37.1852	65.9213	46.2134	-58.2549	60.5213	33.8179	-75.0291	82.7748	47.4581	-24.1281	83.8531	33.9673	-45.3581	73.9605	15.5524	-58.6305	71.3822	68.0133	10.8479	73.8957	69.5568	34.844	48.1248	73.7862	21.3305	
7	0.0583333	26.5171	53.1301	34.0602	11.4573	37.0436	12.3312	5.97127	27.4966	-9.83192	7.17858	16.75	-31.8868	22.7785	68.3356	-32.9797	18.402	56.8991	-57.9232	11.9548	42.7963	-76.5354	47.6095	66.5614	-42.4599	42.8784	59.1048	-67.1965	41.5107	43.8797	-92.418	67.174	56.3135	-40.1194	64.1238	46.0541	-61.4111	54.0487	34.8613	-75.6095	81.8534	48.4329	-26.1168	76.4773	33.9033	-44.727	62.5525	10.1023	-46.6665	71.2765	71.425	4.76858	76.1382	71.5914	34.7906	47.6597	77.2947	23.176	
8	0.0666667	28.9146	52.8456	26.3532	13.8587	33.7294	8.08034	14.3887	24.6814	-13.3706	20.5853	13.0571	-35.0036	24.0194	70.7533	-34.8806	16.0794	64.9776	-57.4044	12.1605	54.8848	-75.1345	48.551	71.0675	-41.8711	43.4655	65.6799	-70.2291	40.4569	59.3787	-89.2019	63.9758	59.7328	-37.5682	60.2227	49.3518	-59.7964	52.8186	34.0897	-79.2733	79.8255	45.2588	-30.5082	67.1292	26.5667	-41.1382	57.4476	8.07134	-30.8071	75.9192	71.1211	4.21817	78.9899	70.459	29.952	51.4574	76.1859	22.3317	
9	0.075	25.9507	48.9782	28.6567	16.4497	26.0666	3.32545	21.1013	16.3548	-17.8338	38.0471	7.22039	-37.7973	25.2099	70.2021	-36.2148	14.3584	67.1615	-54.3551	9.23352	59.9204	-79.2086	45.2988	72.1261	-44.5943	44.4213	69.758	-70.2635	42.1692	68.9893	-90.7118	64.9585	56.7433	-39.2922	60.2207	47.5372	-60.8935	54.2406	35.0576	-79.9286	79.781	37.4981	-31.1832	65.0101	17.8651	-35.635	49.5741	7.22449	-19.3518	70.0286	66.9098	5.87805	77.1617	67.4188	27.6051	52.3035	75.0298	21.1993	
